<svg xmlns="http://www.w3.org/2000/svg" xmlns:xlink="http://www.w3.org/1999/xlink" width="194.148" height="180.606" viewBox="0 0 194.148 180.606"><defs><style>.a{opacity:0.42;fill:url(#a);}.b,.f{fill:#cee5ed;}.b{opacity:0.43;}.c{fill:#aac6ce;}.d{fill:#85b0ba;}.e{fill:#3e8ccc;}.g{fill:none;stroke:#3e8ccc;stroke-miterlimit:10;}.h,.s{fill:#1e394c;}.i{fill:#62bdf4;}.j,.l,.r{fill:#34648c;}.k{fill:#67b8ef;}.l{opacity:0.25;}.m{fill:#f2bf75;}.n{fill:#0f2a3f;}.o,.q{fill:#ea9249;}.p{fill:#80a9b2;}.q{opacity:0.67;}.r{opacity:0.29;}.s{opacity:0.48;}.t{fill:#2173aa;}.u{fill:#1a3651;}</style><linearGradient id="a" x1="0.5" y1="0.923" x2="0.5" y2="-0.187" gradientUnits="objectBoundingBox"><stop offset="0" stop-color="#fff"/><stop offset="0.126" stop-color="#f8fbfe"/><stop offset="0.305" stop-color="#e5f3fc"/><stop offset="0.516" stop-color="#c6e4f9"/><stop offset="0.752" stop-color="#9bd0f4"/><stop offset="1" stop-color="#67b8ef"/></linearGradient></defs><g transform="translate(-523.584 -127.923)"><g transform="translate(523.584 127.923)"><path class="a" d="M567.282,303.96H673.475c23.668-16.316,39.143-43.223,39.143-73.678,0-49.777-41.3-97.282-92.239-97.282s-92.24,47.506-92.24,97.282C528.139,260.738,543.614,287.644,567.282,303.96Z" transform="translate(-523.168 -127.459)"/><ellipse class="b" cx="94.725" cy="3.832" rx="94.725" ry="3.832" transform="translate(0 172.941)"/><g transform="translate(42.873 69.22)"><rect class="c" width="4.422" height="42.291" transform="translate(18.195 61.449)"/><rect class="d" width="4.422" height="5.945" transform="translate(18.195 61.449)"/><path class="c" d="M2.348,0H39.853A2.348,2.348,0,0,1,42.2,2.348V3.881a0,0,0,0,1,0,0H0a0,0,0,0,1,0,0V2.348A2.348,2.348,0,0,1,2.348,0Z" transform="translate(0 103.755)"/><path class="c" d="M572.791,252.847h30.647c-11.151-4-6.838-41.732-4.776-56.033a4.78,4.78,0,0,0-4.735-5.459H573.514a8.363,8.363,0,0,0-8.289,7.217c-1.791,12.994-4.614,39.938.978,50.369A7.463,7.463,0,0,0,572.791,252.847Z" transform="translate(-562.869 -191.355)"/></g><g transform="translate(10.176)"><circle class="e" cx="21.482" cy="21.482" r="21.482" transform="matrix(0.976, -0.218, 0.218, 0.976, 0, 9.37)"/><circle class="f" cx="17.54" cy="17.54" r="17.54" transform="translate(8.111 8.11)"/><path class="g" d="M556.415,139.822" transform="translate(-530.764 -126.837)"/><g transform="translate(19.578 12.088)"><path class="e" d="M551.941,158.546a1.091,1.091,0,0,1-.771-1.863l4.572-4.573V140.091a1.091,1.091,0,0,1,2.182,0v12.471a1.093,1.093,0,0,1-.32.772l-4.892,4.893A1.087,1.087,0,0,1,551.941,158.546Z" transform="translate(-550.85 -139)"/><path class="h" d="M558.929,151.347a2.513,2.513,0,1,0-2.513,2.512A2.513,2.513,0,0,0,558.929,151.347Z" transform="translate(-550.571 -138.103)"/></g></g><g transform="translate(118.079 45.644)"><path class="i" d="M671.856,169.75H635.195a3.4,3.4,0,0,0-3.4,3.4V189.67a3.4,3.4,0,0,0,3.4,3.4h2.56v3.994a.64.64,0,0,0,1.069.476l4.957-4.47h28.074a3.4,3.4,0,0,0,3.4-3.4V173.154A3.4,3.4,0,0,0,671.856,169.75Z" transform="translate(-631.791 -169.75)"/><g transform="translate(11.322 10.414)"><circle class="j" cx="1.499" cy="1.499" r="1.499" transform="translate(0 0)"/><circle class="j" cx="1.499" cy="1.499" r="1.499" transform="translate(9.221 0)"/><circle class="j" cx="1.499" cy="1.499" r="1.499" transform="translate(17.827)"/></g></g><g transform="translate(24.451 81.927)"><g transform="translate(0.896)"><path class="k" d="M559.566,211.094c0-4.043-2.855-8.094-6.377-8.094s-6.377,4.051-6.377,8.094,2.856,7.32,6.377,7.32S559.566,215.137,559.566,211.094Z" transform="translate(-546.812 -203)"/><path class="l" d="M552.793,203a4.714,4.714,0,0,0-1.637.308c2.727,1.006,4.74,4.394,4.74,7.786a7.218,7.218,0,0,1-4.74,7.068,5.608,5.608,0,0,0,1.637.252c3.522,0,6.377-3.277,6.377-7.32S556.315,203,552.793,203Z" transform="translate(-546.416 -203)"/></g><g transform="translate(0 11.821)"><path class="f" d="M546,214.888l1.143,10.347a2.554,2.554,0,0,0,2.538,2.273h6.6a2.553,2.553,0,0,0,2.537-2.273l1.143-10.347a.951.951,0,0,0-.945-1.055H546.942A.951.951,0,0,0,546,214.888Z" transform="translate(-545.991 -213.833)"/><path class="c" d="M546.942,215.379h12.066a.936.936,0,0,1,.833.53l.112-1.021a.951.951,0,0,0-.945-1.055H546.942a.951.951,0,0,0-.945,1.055l.114,1.021A.934.934,0,0,1,546.942,215.379Z" transform="translate(-545.991 -213.833)"/><path class="c" d="M558.5,213.833h-4.183a.951.951,0,0,1,.945,1.055l-1.144,10.347a2.553,2.553,0,0,1-2.537,2.273h4.184a2.553,2.553,0,0,0,2.537-2.273l1.143-10.347A.951.951,0,0,0,558.5,213.833Z" transform="translate(-545.481 -213.833)"/></g></g><g transform="translate(46.179 46.645)"><g transform="translate(0.329 63.094)"><g transform="translate(17.679 4.656)"><path class="m" d="M606.38,280.764l-.433,2.99,2.275,2.911,5.771-2.825.625-2.735-7.183-1.086Z" transform="translate(-580.257 -228.441)"/><path class="h" d="M611.1,290.076l.6-.738a.278.278,0,0,1,.428-.007l.6.7a1.252,1.252,0,0,0,.971.439l13.408-.229a.718.718,0,0,0,.023-1.013c-1.964-1.984-12.542-5.413-13.068-5.7s-3.761,2.224-8.047-.086a45.463,45.463,0,0,0-.794,5.531,1.531,1.531,0,0,0,1.549,1.616l3.4-.058A1.229,1.229,0,0,0,611.1,290.076Z" transform="translate(-580.323 -228.129)"/><path class="h" d="M583.922,234.544s-5.567,6.155,4.627,12.843c7.152,4.692,12.788,3.258,17.278,6.1a3.782,3.782,0,0,1,1.927,2.9l.228,28.771.542.27a9.885,9.885,0,0,0,8.6.094h0l4.059-32.828c.145-2.263-1.077-4.171-2.478-5.954-7.8-9.916-21.6-13.276-25.092-13.849C589.069,232.153,583.922,234.544,583.922,234.544Z" transform="translate(-582.404 -232.753)"/></g><path class="m" d="M586.066,280.76l-.474,2.984,2.235,2.942,5.809-2.746.662-2.726-7.168-1.184Z" transform="translate(-564.435 -223.785)"/><path class="h" d="M590.665,290.135l.606-.729a.277.277,0,0,1,.428,0l.588.709a1.252,1.252,0,0,0,.966.452l13.41-.045a.721.721,0,0,0,.036-1.014c-1.937-2.01-12.466-5.583-12.988-5.88s-3.792,2.173-8.045-.2a45.342,45.342,0,0,0-.871,5.521,1.531,1.531,0,0,0,1.527,1.637l3.4-.012A1.224,1.224,0,0,0,590.665,290.135Z" transform="translate(-564.508 -223.474)"/><path class="h" d="M568.476,229.567s-6.746,7.519,3.009,16.011c6.843,5.957,12.983,3.41,17.293,7.043a4.012,4.012,0,0,1,1.608,3.328l-3.081,29.266.232.152a9.274,9.274,0,0,0,8.994.613h0l7.627-30.839c.478-2.357-.534-4.538-1.75-6.613-6.769-11.54-17.4-18.418-20.985-19.522C576.756,227.571,568.476,229.567,568.476,229.567Z" transform="translate(-566.204 -228.487)"/><path class="n" d="M603.634,252.65a13.389,13.389,0,0,0-1.571-.546,13.42,13.42,0,0,0-1.713-3.983,52.818,52.818,0,0,0-11.589-13.586c2.444-.415,3.688-.938,4.365-1.626a45.945,45.945,0,0,1,7.322,1.986C603.764,240.439,603.754,249.442,603.634,252.65Z" transform="translate(-564.146 -228.083)"/></g><path class="f" d="M586.656,193.022s-9.729-1.3-13.772,6.283-10.081,37.3-4.8,38.2c2.337.4,8.571,1.969,15.478,1.463,9.5-.7,11.562-1.569,12.246-3.375l6.05-27.694a11.71,11.71,0,0,0-4.593-9.777A32.973,32.973,0,0,0,586.656,193.022Z" transform="translate(-565.892 -168.636)"/><path class="c" d="M599.273,204.42s.127,16.678,5.37,17.689,19.206.7,19.206.7v5.307H593.9Z" transform="translate(-563.348 -167.589)"/><path class="o" d="M592.844,198.466l1.18-5.9-7.651-5.828-1.466,6.954S587.32,204.312,592.844,198.466Z" transform="translate(-564.168 -169.202)"/><path class="h" d="M602.855,182.792s-4,1.948-9.867-1.626a13.882,13.882,0,0,1-5.29,4.629s-2.042-3.423-3.218-.858a5.427,5.427,0,0,0-.54,2.093c-3.681-4.753-1.086-11.017,2.347-14.393,3.252-3.2,10.291-1.93,14.689-.163,4.668,1.879,5.526-1.39,5.526-1.39C612.4,179.394,602.855,182.792,602.855,182.792Z" transform="translate(-564.42 -170.668)"/><path class="m" d="M587.547,184.916s-2.043-3.423-3.218-.859c-1.425,3.112.183,5.063,2.114,5.063,0,0,1.533,8.094,8.97,7.522s8.508-12.513,7.293-14.729c0,0-4,1.948-9.867-1.627A13.834,13.834,0,0,1,587.547,184.916Z" transform="translate(-564.271 -169.79)"/><g transform="translate(34.066 34.055)"><path class="f" d="M649.5,201.876h-31.04a3.221,3.221,0,0,0-3.155,2.576l-4.131,20.254h37.61l3.871-18.968A3.22,3.22,0,0,0,649.5,201.876Z" transform="translate(-595.838 -201.876)"/><rect class="p" width="54.363" height="3.56" rx="1.404" transform="translate(0 22.833)"/><path class="c" d="M648.7,222.8H610.8a1.531,1.531,0,0,1,1.532,1.532v.5a1.531,1.531,0,0,1-1.532,1.532h37.9a1.532,1.532,0,0,0,1.532-1.532v-.5A1.532,1.532,0,0,0,648.7,222.8Z" transform="translate(-595.872 -199.967)"/></g><path class="f" d="M603.154,224.168c-6.043-.7-23-2.433-25.9-2.734-3.664-.38,4.3-15.163,5.18-20.216s-2.969-5.244-2.969-5.244a6.174,6.174,0,0,0-6.57,3.062c-4.138,6.267-8.746,24.585-6.317,29.108a1.635,1.635,0,0,0,1.445.857h35.133Z" transform="translate(-565.902 -168.366)"/><path class="c" d="M602.392,224.168s-21.827-1.5-26.533-2.133c-3.651-.49,3.959-15.636,4.843-20.69s-3.033-4.844-3.033-4.844a9.38,9.38,0,0,0-3.408.32,6.318,6.318,0,0,1,4.442-.849s3.851.192,2.967,5.247-7.707,19.521-5.4,20.09C579.105,222.007,596.348,223.466,602.392,224.168Z" transform="translate(-565.14 -168.366)"/><path class="m" d="M600.04,226.669h8.142a.769.769,0,0,0,.646-1.188c-.763-1.172-1.966-2.827-2.849-3.108a38.744,38.744,0,0,0-5.939.134Z" transform="translate(-562.788 -165.957)"/><path class="q" d="M602.019,181.777a6.481,6.481,0,0,1-1.843.459c-.1.551-.277,1.611-.372,2.615-.136,1.432.579,5.865.136,5.9a13.027,13.027,0,0,1-1.364-.034s-.682,6.411-7.093,5.387l-.167-.025a8.1,8.1,0,0,0,3.41.428C602.162,195.935,603.234,183.993,602.019,181.777Z" transform="translate(-563.584 -169.654)"/></g><g transform="translate(142.511 104.418)"><g transform="translate(22.614 6.316)"><path class="k" d="M687.724,270.586s10.226-5.072,7.444-12.762-4.5-8.017.818-12.354,13.008-15.216,3.273-16.035-9.245,12.108-17.344,13.908S669.4,279.012,687.724,270.586Z" transform="translate(-674.904 -229.398)"/><path class="l" d="M679.277,271.347c1.963.911,4.6.822,8.048-.762,0,0,10.226-5.072,7.444-12.762s-4.5-8.017.818-12.354,13.008-15.216,3.273-16.035a8.936,8.936,0,0,0-2.6.139c2.739,1.138,5.465,3.4,1.942,7.574-5.865,6.957-9,9.412-8.321,13.913C690.552,255.451,690.174,265.416,679.277,271.347Z" transform="translate(-674.505 -229.398)"/></g><g transform="translate(0 17.066)"><path class="k" d="M672.271,269.441s-9-.327-8.508-6.791.741-6.715-4.909-8.753c-9.98-3.6-2.079-22.77,6.054-10.717,5.645,8.364,8.1,6.483,11.781,7.138S688.388,272.3,672.271,269.441Z" transform="translate(-654.18 -239.249)"/><path class="r" d="M676.632,250.318c-3.682-.655-6.136,1.227-11.781-7.138-4.257-6.31-8.445-4.059-10.045.029,2.4-.733,6.033-1.173,6.486,2.724.588,5.057,12.417,13.359,12.176,23.681.157.016.309.027.462.039,1.721-4.54,3.993-10.427,5.937-15.443C678.826,252.048,677.584,250.488,676.632,250.318Z" transform="translate(-654.123 -239.249)"/></g><g transform="translate(12.024)"><path class="j" d="M673.352,270.582s-11.167-10.922-7.363-12.763,11.29,4.173,7.117-2.331-9.03-16.635-3.263-15.039,6.186,3.348,5.472-4.227c-.923-9.8,4.54-14.848,9.693-11.658s-4.417,24.788-.859,22.457,6.5-4.3,7.24-1.472-10.189,13.9-6.136,12.025c5.032-2.331,5.768,1.841,4.173,4.418S681.205,279.908,673.352,270.582Z" transform="translate(-665.199 -223.61)"/><path class="s" d="M688.531,261.991c1.6-2.577.859-6.749-4.173-4.418-4.053,1.879,6.873-9.2,6.136-12.025s-3.681-.859-7.24,1.472,6.014-19.266.859-22.457a5.26,5.26,0,0,0-6.71.563c2.668.653,4.8,2.8,3.324,8.593-3.137,12.276-5.047,22.507.682,19.506,5.4-2.826-6.267,10.2-6.386,19.588C681.719,276.64,687.113,264.282,688.531,261.991Z" transform="translate(-664.303 -223.609)"/></g><g transform="translate(12.433 46.257)"><path class="f" d="M665.585,267.995l2.162,19.568a4.827,4.827,0,0,0,4.8,4.3h12.473a4.827,4.827,0,0,0,4.8-4.3l2.162-19.568A1.8,1.8,0,0,0,690.19,266H667.372A1.8,1.8,0,0,0,665.585,267.995Z" transform="translate(-665.574 -266)"/><path class="c" d="M689.226,266h-7.911a1.8,1.8,0,0,1,1.787,1.995l-2.162,19.568a4.827,4.827,0,0,1-4.8,4.3h7.911a4.827,4.827,0,0,0,4.8-4.3l2.162-19.568A1.8,1.8,0,0,0,689.226,266Z" transform="translate(-664.61 -266)"/></g></g><g transform="translate(14.619 107.294)"><g transform="translate(4.223)"><rect class="e" width="139.178" height="6.318" rx="2.491" transform="translate(0 0)"/><path class="t" d="M677.312,226.246H543.57a2.718,2.718,0,0,0-2.718,2.718v.881a2.712,2.712,0,0,0,.14.824,2.71,2.71,0,0,1,2.579-1.9H677.312a2.709,2.709,0,0,1,2.578,1.9,2.712,2.712,0,0,0,.141-.824v-.881A2.719,2.719,0,0,0,677.312,226.246Z" transform="translate(-540.852 -226.246)"/></g><g transform="translate(0 6.349)"><g transform="translate(13.646)"><path class="j" d="M585.054,295.051h-4.47l-31.1-62.986h4.47Z" transform="translate(-549.486 -232.064)"/></g><path class="j" d="M536.981,295.051h4.47l31.1-62.986h-4.47Z" transform="translate(-536.981 -232.064)"/><g transform="translate(109.926)"><path class="j" d="M673.284,295.051h-4.47l-31.1-62.986h4.47Z" transform="translate(-637.717 -232.064)"/></g><g transform="translate(96.28)"><path class="j" d="M625.212,295.051h4.47l31.1-62.986h-4.47Z" transform="translate(-625.212 -232.064)"/></g><g transform="translate(13.646)"><path class="u" d="M555.188,234.56l-1.232-2.5h-4.47l1.232,2.5Z" transform="translate(-549.486 -232.064)"/></g><g transform="translate(29.866)"><path class="u" d="M568.82,234.56l1.232-2.5h-4.47l-1.232,2.5Z" transform="translate(-564.35 -232.064)"/></g><g transform="translate(109.926)"><path class="u" d="M643.419,234.56l-1.232-2.5h-4.47l1.232,2.5Z" transform="translate(-637.717 -232.064)"/></g><g transform="translate(126.146)"><path class="u" d="M657.05,234.56l1.232-2.5h-4.47l-1.232,2.5Z" transform="translate(-652.58 -232.064)"/></g></g></g></g></g></svg>