<svg xmlns="http://www.w3.org/2000/svg" width="24.351" height="24.352" viewBox="0 0 24.351 24.352"><g transform="translate(-1627.75 -485.75)"><path d="M20.376,26.8H5.172A3.426,3.426,0,0,1,1.75,23.376V8.172A3.426,3.426,0,0,1,5.172,4.75h7.6a1.25,1.25,0,1,1,0,2.5h-7.6a.923.923,0,0,0-.922.922v15.2a.923.923,0,0,0,.922.922h15.2a.923.923,0,0,0,.922-.922v-7.6a1.25,1.25,0,0,1,2.5,0v7.6A3.426,3.426,0,0,1,20.376,26.8Z" transform="translate(1626 483.304)" fill="#3fa9f4"/><path d="M25.032,1.568a3.554,3.554,0,0,1,2.513,6.067L17.228,17.952a1.25,1.25,0,0,1-.581.329L12.3,19.367a1.25,1.25,0,0,1-1.516-1.516l1.086-4.344a1.25,1.25,0,0,1,.329-.581L22.519,2.609A3.531,3.531,0,0,1,25.032,1.568ZM15.705,15.939,25.777,5.867a1.054,1.054,0,0,0-1.49-1.49L14.215,14.449l-.5,1.987Z" transform="translate(1623.516 484.182)" fill="#3fa9f4"/></g></svg>