<svg xmlns="http://www.w3.org/2000/svg" xmlns:xlink="http://www.w3.org/1999/xlink" width="159.614" height="176.227" viewBox="0 0 159.614 176.227"><defs><style>.a,.p{opacity:0.42;}.a{fill:url(#a);}.b,.j{fill:#cee5ed;}.b{opacity:0.43;}.c{fill:#17161c;}.d{fill:#1e394c;}.e{fill:#62bdf4;}.f,.m,.p{fill:#34648c;}.f{opacity:0.25;}.g{fill:#87d3f9;}.h{fill:#f2bf75;}.i{fill:#aac6ce;}.k{fill:#ea9249;}.l,.o{fill:#0f2a3f;}.n{fill:#67b8ef;}.o{opacity:0.26;}</style><linearGradient id="a" x1="0.5" y1="0.923" x2="0.5" y2="-0.187" gradientUnits="objectBoundingBox"><stop offset="0" stop-color="#fff"/><stop offset="0.126" stop-color="#f8fbfe"/><stop offset="0.305" stop-color="#e5f3fc"/><stop offset="0.516" stop-color="#c6e4f9"/><stop offset="0.752" stop-color="#9bd0f4"/><stop offset="1" stop-color="#67b8ef"/></linearGradient></defs><g transform="translate(-44.14 -105.856)"><path class="a" d="M78.007,279.919h91.88a77.364,77.364,0,0,0,33.867-63.748c0-43.068-35.731-84.171-79.807-84.171S44.14,173.1,44.14,216.171A77.362,77.362,0,0,0,78.007,279.919Z" transform="translate(0 -1.46)"/><ellipse class="b" cx="10.571" cy="57.244" rx="10.571" ry="57.244" transform="translate(55.476 280.085) rotate(-89)"/><g transform="translate(97.714 105.856)"><g transform="translate(33.2)"><path class="c" d="M145.638,218.1c-5.289-1.928-9.592-7.782-9.592-13.049V115.665c0-5.268,4.3-7.986,9.592-6.058l38.826,14.154c5.289,1.928,9.592,7.782,9.592,13.049v89.383c0,5.268-4.3,7.986-9.592,6.058Z" transform="translate(-136.046 -106.031)"/><path class="d" d="M146.268,220.875c-5.575-2.032-10.111-8.2-10.111-13.756V112.895c0-5.553,4.536-8.417,10.111-6.384L187.2,121.43c5.575,2.032,10.111,8.2,10.111,13.756V229.41c0,5.553-4.536,8.417-10.111,6.385Z" transform="translate(-136.052 -105.856)"/><path class="e" d="M145.853,214.7c-3.28-1.2-5.949-4.826-5.949-8.093V117.221c0-3.267,2.669-4.952,5.949-3.756l38.826,14.153c3.28,1.2,5.949,4.827,5.949,8.093v89.383c0,3.267-2.668,4.952-5.948,3.756Z" transform="translate(-136.261 -106.26)"/><path class="f" d="M184.717,127.618l-38.826-14.153c-2.322-.847-4.332-.245-5.312,1.335a4.89,4.89,0,0,1,3.9-.037L183.3,128.916c3.28,1.2,5.949,4.827,5.949,8.093v89.383a4.54,4.54,0,0,1-.636,2.421,3.928,3.928,0,0,0,2.053-3.719V135.712C190.666,132.445,188,128.814,184.717,127.618Z" transform="translate(-136.299 -106.26)"/><path class="d" d="M180.354,125.175,151.47,114.646l1.284,3.446a6.044,6.044,0,0,0,3.4,3.469l19.521,7.115a2.58,2.58,0,0,0,3.4-.99Z" transform="translate(-136.907 -106.347)"/><path class="g" d="M183.342,140.707l-35.672-13c-1.914-.7-3.465.281-3.465,2.188v16.081a5.475,5.475,0,0,0,3.465,4.714l35.672,13c1.914.7,3.465-.281,3.465-2.188V145.421A5.475,5.475,0,0,0,183.342,140.707Z" transform="translate(-136.502 -107.064)"/><path class="g" d="M183.342,170.654l-35.672-13c-1.914-.7-3.465.282-3.465,2.188v16.081a5.475,5.475,0,0,0,3.465,4.714l35.672,13c1.914.7,3.465-.282,3.465-2.189V175.368A5.476,5.476,0,0,0,183.342,170.654Z" transform="translate(-136.502 -108.736)"/><path class="g" d="M183.342,200.922l-35.672-13c-1.914-.7-3.465.282-3.465,2.189v16.081a5.475,5.475,0,0,0,3.465,4.714l35.672,13c1.914.7,3.465-.281,3.465-2.188V205.636A5.475,5.475,0,0,0,183.342,200.922Z" transform="translate(-136.502 -110.426)"/><g transform="translate(18.048 31.792)"><path class="d" d="M172.777,144.069l-12.323-4.492a.512.512,0,0,0-.756.477h0a1.2,1.2,0,0,0,.756,1.028l12.323,4.492a.511.511,0,0,0,.755-.477h0A1.2,1.2,0,0,0,172.777,144.069Z" transform="translate(-155.414 -139.528)"/><path class="d" d="M172.777,153.025l-12.323-4.492a.512.512,0,0,0-.756.477h0a1.2,1.2,0,0,0,.756,1.028l12.323,4.492a.511.511,0,0,0,.755-.477h0A1.2,1.2,0,0,0,172.777,153.025Z" transform="translate(-155.414 -140.028)"/><path class="d" d="M176.32,149.9l-20.4-7.437a.511.511,0,0,0-.755.477h0a1.2,1.2,0,0,0,.755,1.028l20.4,7.437a.511.511,0,0,0,.755-.477h0A1.2,1.2,0,0,0,176.32,149.9Z" transform="translate(-155.161 -139.689)"/></g><g transform="translate(18.048 62.111)"><path class="d" d="M172.777,176.181l-12.323-4.492a.512.512,0,0,0-.756.478h0a1.2,1.2,0,0,0,.756,1.028l12.323,4.491a.511.511,0,0,0,.755-.477h0A1.2,1.2,0,0,0,172.777,176.181Z" transform="translate(-155.414 -171.641)"/><path class="d" d="M176.32,182.01l-20.4-7.437a.511.511,0,0,0-.755.477h0a1.2,1.2,0,0,0,.755,1.028l20.4,7.437a.511.511,0,0,0,.755-.477h0A1.2,1.2,0,0,0,176.32,182.01Z" transform="translate(-155.161 -171.802)"/></g><g transform="translate(18.048 88.621)"><path class="d" d="M172.777,204.259l-12.322-4.492a.512.512,0,0,0-.756.478h0a1.2,1.2,0,0,0,.756,1.028l12.322,4.492a.512.512,0,0,0,.756-.478h0A1.2,1.2,0,0,0,172.777,204.259Z" transform="translate(-155.414 -199.719)"/><path class="d" d="M172.777,213.134l-12.322-4.491a.511.511,0,0,0-.756.477h0a1.2,1.2,0,0,0,.756,1.028l12.322,4.492a.512.512,0,0,0,.756-.478h0A1.2,1.2,0,0,0,172.777,213.134Z" transform="translate(-155.414 -200.214)"/><path class="d" d="M176.32,210.088l-20.4-7.437a.511.511,0,0,0-.755.477h0a1.2,1.2,0,0,0,.755,1.028l20.4,7.438a.511.511,0,0,0,.755-.478h0A1.2,1.2,0,0,0,176.32,210.088Z" transform="translate(-155.161 -199.88)"/></g></g><g transform="translate(0 26.963)"><path class="h" d="M135.857,278.385s-1.858-.668-2.1-4.765h-5.432l-.524,5.622,4.049,3.383,3.526-1.763Z" transform="translate(-102.385 -142.187)"/><path class="d" d="M127.788,279.524s6.337,2.1,8.052-.857c0,0,11.71,4.363,11.626,5.663-.134,2.061-9.815,2.484-11.96,1.96l-1.858-1.858-.81,2.144H127.5S127.549,279.858,127.788,279.524Z" transform="translate(-102.368 -142.469)"/><path class="h" d="M114.385,278.412s-1.825-.752-1.875-4.856l-5.426-.25L106.3,278.9l3.89,3.566,3.6-1.6Z" transform="translate(-101.185 -142.17)"/><path class="d" d="M106.266,279.2s6.234,2.386,8.083-.486c0,0,10.248,3.691,10.837,5.387s-9.4,2.834-11.521,2.212l-1.77-1.941-.908,2.1-5.331-.245S106.013,279.523,106.266,279.2Z" transform="translate(-101.149 -142.472)"/><path class="d" d="M102.421,210.539s3.525,14.295,4.384,16.677,2.668,14.009,2.764,14.389-4,30.3-4,30.3,5.527,1.239,7.719-.191l6-30.207-2.574-29.732Z" transform="translate(-100.968 -138.665)"/><path class="d" d="M103.229,209.529s5.431,9.291,10.291,13.436,10.864,15.294,10.864,15.294l.715,33.162h0a7.686,7.686,0,0,0,7.64.2l.364-.2s.857-34.448.715-36.735S121.525,206.1,121.525,206.1Z" transform="translate(-101.013 -138.417)"/><path class="d" d="M124.46,144.634s-4.253,15.015-11.078,14.581c-5.979-.381-7.092-6.582-5.646-14.223,1.5-7.934,8.053-6.885,11.864-6.933,0,0,4.717,0,5.5-3.644,0,0,5.5,7.5-.644,10.22" transform="translate(-101.233 -134.414)"/><path class="i" d="M113.268,164.623s-8.321-1.475-12.171,16.288c-1.616,7.456,6.861,19.153,6.861,19.153l8.862-17.057Z" transform="translate(-100.883 -136.099)"/><path class="h" d="M150.993,153.23s3.145-8.648,3.145-11.006,1.786-.286,1.716,1.5a26.278,26.278,0,0,1-.5,3.788s2.429.214,2.429,1.358-.786,5.146-1.929,5.789Z" transform="translate(-103.68 -134.791)"/><path class="j" d="M117.892,165.236c5.526,2.843,17.367,10.291,20.083,7.861s10.22-19.154,10.22-19.154l4.861,1.429s-10.388,27.874-13.461,27.8-13.532-2.1-13.532-2.1-.953,19.678-3.812,25.11c0,0-14.079,5.074-21.369.929a27,27,0,0,0,4.431-19.082C103.669,176.135,106.85,159.554,117.892,165.236Z" transform="translate(-100.882 -135.505)"/><g transform="translate(12.149 10.22)"><path class="k" d="M124.828,145.238a14.312,14.312,0,0,0,1.287,3.86,11.454,11.454,0,0,0,2.5,2.43l-1.358,1.715a6.175,6.175,0,0,1-5.36,7.147l-.643,5.932-7.219-2.43-.286-4.073A4.887,4.887,0,0,0,115,157.245a3.413,3.413,0,0,1-.965-3.037c.465-1.644,1.93-2.895,2.609-2.287a3.037,3.037,0,0,1,.751,1.822h.929a10.937,10.937,0,0,1,.393-3.859A9.051,9.051,0,0,1,124.828,145.238Z" transform="translate(-113.75 -145.238)"/><path class="h" d="M121.54,166.322l.643-5.932a6.175,6.175,0,0,0,5.36-7.147l1.358-1.715a11.454,11.454,0,0,1-2.5-2.43,14.312,14.312,0,0,1-1.287-3.86c-.289.067-.552.158-.82.245a21.253,21.253,0,0,1,1.249,5.255c.236,3.069-.249,6.535-4.543,9.146-1.456.885-1.983,3.288-2.143,5.535Z" transform="translate(-114.035 -145.238)"/></g></g><path class="l" d="M118.249,229.484c-4.75-1.074-9.24-3.916-12.7-6.688-1.135-4.278-2.591-10.134-3-11.78a13.492,13.492,0,0,0,1.7.492c1.808,2.883,5.674,8.7,9.24,11.73a32.691,32.691,0,0,1,4.7,5.423Z" transform="translate(-100.975 -111.728)"/></g><path class="b" d="M187.427,264.048c-.067-2.257-11.168-6.146-24.794-8.687s-24.617-2.771-24.55-.515,11.168,6.146,24.794,8.687S187.495,266.305,187.427,264.048Z" transform="matrix(0.985, -0.174, 0.174, 0.985, -47.826, 23.971)"/><g transform="translate(55.49 193.024)"><path class="m" d="M77.033,224.049s3.339-29.133-8.722-24.587C55.885,204.146,71.466,223.4,77.033,224.049Z" transform="translate(-56.578 -198.224)"/><path class="n" d="M73.322,242.824s-3.657-29.156-14.265-21.084C49.454,229.045,66.225,240.667,73.322,242.824Z" transform="translate(-56.162 -199.416)"/><path class="d" d="M66.022,232.538c4.849,6.728,9.565,13.566,11.07,21.887.079.442.753.255.673-.186-1.514-8.373-6.252-15.272-11.14-22.054-.261-.362-.867-.013-.6.353Z" transform="translate(-56.709 -200.07)"/><path class="n" d="M84.065,217.788S79.7,196.356,90.745,198.3,86.848,216.768,84.065,217.788Z" transform="translate(-57.672 -198.179)"/><path class="m" d="M85.179,239.829c-.562.375-1.113-18.092,6.68-17.442S96.034,232.592,85.179,239.829Z" transform="translate(-57.766 -199.53)"/><path class="d" d="M81.537,237.3c-.849-10.862,3.663-23.1,7.872-32.994.174-.409-.428-.766-.6-.352-4.279,10.058-8.834,22.263-7.968,33.346.035.446.734.449.7,0Z" transform="translate(-57.534 -198.492)"/><path class="d" d="M82.075,251.713c-.561-12.74-1.683-25.675-8.82-36.63-.245-.376-.85-.025-.6.352,7.076,10.863,8.169,23.648,8.725,36.277.02.448.719.45.7,0Z" transform="translate(-57.079 -199.114)"/><path class="d" d="M84.331,252.131c.288-6.7.734-13.4,4.422-19.212.242-.38-.363-.732-.6-.352-3.743,5.9-4.226,12.756-4.518,19.564-.02.45.68.449.7,0Z" transform="translate(-57.696 -200.09)"/><g transform="translate(14.337 48.974)"><path class="j" d="M71.355,251.725l1.814,16.422a4.051,4.051,0,0,0,4.027,3.607H87.665a4.05,4.05,0,0,0,4.027-3.607l1.814-16.422a1.508,1.508,0,0,0-1.5-1.675H72.855A1.509,1.509,0,0,0,71.355,251.725Z" transform="translate(-71.346 -250.05)"/><path class="i" d="M92.579,250.05h-6.64a1.51,1.51,0,0,1,1.5,1.675l-1.814,16.422a4.051,4.051,0,0,1-4.028,3.607h6.64a4.05,4.05,0,0,0,4.027-3.607l1.814-16.422A1.508,1.508,0,0,0,92.579,250.05Z" transform="translate(-71.919 -250.05)"/></g><path class="o" d="M73.215,221.8a9.164,9.164,0,0,0,4.1,2.247s3.314-28.937-8.61-24.621C71.894,203.416,78.693,213.563,73.215,221.8Z" transform="translate(-56.862 -198.225)"/><path class="o" d="M92.531,222.476c.266,3.67.229,13.367-7.6,12.785-.13,2.692.057,4.7.245,4.574C95.707,232.816,99.427,223.617,92.531,222.476Z" transform="translate(-57.766 -199.536)"/><path class="p" d="M91.282,198.443c.243,3.8.186,14.338-7.926,13.914a49.823,49.823,0,0,0,.717,5.446C86.808,216.8,101.264,200.842,91.282,198.443Z" transform="translate(-57.68 -198.194)"/><path class="p" d="M73.44,242.824s-3.657-29.156-14.265-21.084a9.77,9.77,0,0,0-.908.786c3.315,1.143,14.241,5.928,10.675,18.324A25.593,25.593,0,0,0,73.44,242.824Z" transform="translate(-56.279 -199.416)"/></g></g></svg>