<svg xmlns="http://www.w3.org/2000/svg" width="17.996" height="18" viewBox="0 0 17.996 18"><path d="M8.3,11H6.5a.9.9,0,1,0,0,1.8H8.3a.9.9,0,0,0,0-1.8ZM7.4,9.2H11a.9.9,0,0,0,0-1.8H7.4a.9.9,0,0,0,0,1.8Zm.9,5.4H6.5a.9.9,0,1,0,0,1.8H8.3a.9.9,0,1,0,0-1.8ZM19.1,11H16.4V2.9a.9.9,0,0,0-1.35-.783l-2.7,1.548-2.7-1.548a.9.9,0,0,0-.9,0l-2.7,1.548L3.35,2.117A.9.9,0,0,0,2,2.9V17.3A2.7,2.7,0,0,0,4.7,20H17.3A2.7,2.7,0,0,0,20,17.3V11.9A.9.9,0,0,0,19.1,11ZM4.7,18.2a.9.9,0,0,1-.9-.9V4.456L5.6,5.482a.972.972,0,0,0,.9,0L9.2,3.934l2.7,1.548a.972.972,0,0,0,.9,0l1.8-1.026V17.3a2.7,2.7,0,0,0,.162.9Zm13.5-.9a.9.9,0,1,1-1.8,0V12.8h1.8ZM12.4,14.75a.684.684,0,0,0-.162-.081.54.54,0,0,0-.171-.054.9.9,0,0,0-.81.243A.945.945,0,0,0,11,15.5a.9.9,0,0,0,.063.342,1.071,1.071,0,0,0,.2.3,1.035,1.035,0,0,0,.3.189.846.846,0,0,0,.684,0,1.035,1.035,0,0,0,.3-.189A.9.9,0,0,0,12.8,15.5a.945.945,0,0,0-.261-.639,1.422,1.422,0,0,0-.135-.108Zm.126-3.491a.934.934,0,1,0,.2.3.819.819,0,0,0-.2-.3Z" transform="translate(-2 -1.996)" fill="#fff"/></svg>