<svg xmlns="http://www.w3.org/2000/svg" xmlns:xlink="http://www.w3.org/1999/xlink" width="220" height="61.134" viewBox="0 0 220 61.134"><defs><style>.a{fill:#fff;}.b{fill:url(#a);}.c{fill:url(#b);}</style><linearGradient id="a" x1="0.238" y1="0.614" x2="1.055" y2="-0.395" gradientUnits="objectBoundingBox"><stop offset="0" stop-color="#0172bc"/><stop offset="0.315" stop-color="#1750a6"/><stop offset="1" stop-color="#0071bb"/></linearGradient><linearGradient id="b" x1="1.5" y1="0.02" x2="1.5" y2="0.82" gradientUnits="objectBoundingBox"><stop offset="0" stop-color="#0071bb"/><stop offset="0.471" stop-color="#0979c4"/><stop offset="0.561" stop-color="#1382cd"/><stop offset="0.604" stop-color="#2995e0"/><stop offset="1" stop-color="#3fa9f4"/></linearGradient></defs><g transform="translate(-36 -32)"><g transform="translate(36 32)"><g transform="translate(0 0)"><path class="a" d="M147.368,46.947h8.841a8.744,8.744,0,0,0,16.5,0h8.84a17.386,17.386,0,0,1-34.179,0Zm38.076-19.456c0-9.211,7.736-16.68,17.279-16.68S220,18.28,220,27.491a16.484,16.484,0,0,1-.284,3.013H210.86V30.5H194.678a8.642,8.642,0,0,0,8.052,5.331,8.736,8.736,0,0,0,6.119-2.468H218.9a17.537,17.537,0,0,1-16.175,11.12A17.246,17.246,0,0,1,185.443,27.491Zm9.629-3.856h15.307a8.778,8.778,0,0,0-15.307,0Zm-47.885,3.856c0-9.211,7.736-16.68,17.279-16.68s17.279,7.469,17.279,16.68a17.281,17.281,0,0,1-34.557,0Zm8.635-.008a8.649,8.649,0,0,0,17.286,0,8.649,8.649,0,0,0-17.286,0Zm-21.908,17v-33.6h8.644v33.6Zm-15.433,0c-2.468,0-4.937-2.469-4.937-5.56V17.681h-3.707v-6.8h3.707s.151-8.414,0-8.414h.008L121.572,0V10.883h6.176v6.8h-6.176V34.336c0,2.106.616,2.729,2.722,2.729h3.446v7.413ZM37.956,27.491c0-9.211,7.737-16.68,17.279-16.68s17.279,7.469,17.279,16.68a16.4,16.4,0,0,1-.284,3.013H63.373V30.5H47.19a8.643,8.643,0,0,0,8.052,5.331,8.735,8.735,0,0,0,6.119-2.468H71.409a17.536,17.536,0,0,1-16.175,11.12A17.247,17.247,0,0,1,37.956,27.491Zm9.629-3.856H62.892a8.778,8.778,0,0,0-15.307,0Zm-22.9,20.843V25.023s.181-6.4-7.626-6.4-7.8,5.781-7.8,5.781V44.479H0V12.05l9.259-1.238v4.322s2.468-4.322,9.257-4.322c14.2,0,15.426,11.735,15.426,12.973V44.479ZM133.915,4.322a4.322,4.322,0,1,1,4.321,4.321A4.319,4.319,0,0,1,133.915,4.322Z"/></g><g transform="translate(72.229 11.598)"><path class="b" d="M119.057,13.71h10.092l-10.8,17.865a.4.4,0,0,0,0,.389h0l10.8,17.857h-9.77a4.646,4.646,0,0,1-4.162-2.419h0l-9.576-15.438a.4.4,0,0,1,0-.389h0l9.711-15.708A4.134,4.134,0,0,1,119.057,13.71Z" transform="translate(-94.72 -13.71)"/><path class="c" d="M102.832,13.71H92.74l10.8,17.865a.4.4,0,0,1,0,.389h0L92.74,49.822h9.77a4.647,4.647,0,0,0,4.162-2.419h0l9.576-15.438a.4.4,0,0,0,0-.389h0l-9.711-15.708A4.134,4.134,0,0,0,102.832,13.71Z" transform="translate(-92.74 -13.71)"/></g></g></g></svg>