<svg xmlns="http://www.w3.org/2000/svg" width="32.547" height="24.352" viewBox="0 0 32.547 24.352"><g transform="translate(-1689.75 -485.75)"><path d="M16.523,4.75a14.343,14.343,0,0,1,6.985,1.863,20.606,20.606,0,0,1,5.024,4,27.006,27.006,0,0,1,4.133,5.759,1.25,1.25,0,0,1,0,1.118,27.006,27.006,0,0,1-4.133,5.759,20.606,20.606,0,0,1-5.024,4A14.343,14.343,0,0,1,16.523,29.1,14.342,14.342,0,0,1,9.539,27.24a20.605,20.605,0,0,1-5.024-4A27.006,27.006,0,0,1,.382,17.485a1.25,1.25,0,0,1,0-1.118,27.006,27.006,0,0,1,4.133-5.759,20.605,20.605,0,0,1,5.024-4A14.342,14.342,0,0,1,16.523,4.75Zm13.6,12.176a25.723,25.723,0,0,0-3.457-4.655C23.523,8.939,20.111,7.25,16.523,7.25c-7.493,0-12.367,7.537-13.6,9.676a25.723,25.723,0,0,0,3.457,4.655C9.524,24.913,12.936,26.6,16.523,26.6s7-1.689,10.141-5.021A25.72,25.72,0,0,0,30.122,16.926Z" transform="translate(1689.5 481)" fill="#3fa9f4"/><path d="M17.6,22.945A5.347,5.347,0,1,1,22.945,17.6,5.353,5.353,0,0,1,17.6,22.945Zm0-8.195A2.847,2.847,0,1,0,20.445,17.6,2.851,2.851,0,0,0,17.6,14.75Z" transform="translate(1688.426 480.329)" fill="#3fa9f4"/></g></svg>